<?xml version="1.0" encoding="utf-8"?>
<!-- Generator: Adobe Illustrator 23.0.1, SVG Export Plug-In . SVG Version: 6.00 Build 0)  -->
<svg version="1.1" id="Layer_1" xmlns="http://www.w3.org/2000/svg" xmlns:xlink="http://www.w3.org/1999/xlink" x="0px" y="0px"
	 viewBox="0 0 291.8 252.8" style="enable-background:new 0 0 291.8 252.8;" xml:space="preserve">
<style type="text/css">
	.st0{fill:#1E77E9;}
</style>
<g>
	<g>
		<g>
			<path class="st0" d="M73.8,210.3c-0.8-0.8-1.9-1.2-3-1.2s-2.2,0.5-3,1.2s-1.2,1.9-1.2,3s0.5,2.2,1.2,3c0.8,0.8,1.9,1.2,3,1.2
				s2.2-0.5,3-1.2c0.8-0.8,1.2-1.9,1.2-3S74.6,211.1,73.8,210.3z"/>
		</g>
	</g>
	<g>
		<g>
			<path class="st0" d="M236,95.6c-0.8-0.8-1.9-1.2-3-1.2s-2.2,0.5-3,1.2c-0.8,0.8-1.2,1.9-1.2,3s0.5,2.2,1.2,3
				c0.8,0.8,1.9,1.2,3,1.2s2.2-0.5,3-1.2c0.8-0.8,1.2-1.9,1.2-3C237.2,97.4,236.8,96.4,236,95.6z"/>
		</g>
	</g>
	<g>
		<g>
			<path class="st0" d="M252.7,19.6c-0.8-0.8-1.9-1.2-3-1.2H145.9c-2.3,0-4.2,1.9-4.2,4.2v12.1l-40,10.7c-2.3,0.6-3.6,2.9-3,5.2
				l20.7,77.3l-17.9,17.9c-2.3-3.3-6.1-5.5-10.4-5.5H50.6c-7,0-12.7,5.7-12.7,12.7v68.8c0,7,5.7,12.7,12.7,12.7h40.5
				c5.9,0,10.9-4.1,12.3-9.6l5,4.4c3.9,3.4,8.8,5.2,14,5.2h127.4c2.3,0,4.2-1.9,4.2-4.2V22.6C253.9,21.5,253.5,20.4,252.7,19.6z
				 M95.3,221.7c0,2.3-1.9,4.2-4.2,4.2H50.6c-2.3,0-4.2-1.9-4.2-4.2V153c0-2.3,1.9-4.2,4.2-4.2h16v48.6c0,2.3,1.9,4.2,4.2,4.2
				s4.2-1.9,4.2-4.2v-48.6h16c2.3,0,4.2,1.9,4.2,4.2L95.3,221.7L95.3,221.7z M108,52.5l33.7-9V59l-2.8,0.8c-1.1,0.3-2,1-2.6,2
				s-0.7,2.1-0.4,3.2c1.6,6.1-2,12.3-8,13.9c-1.1,0.3-2,1-2.6,2s-0.7,2.1-0.4,3.2l16.4,60.9h-8.5l-4.4-17.1c-0.1-0.5-0.4-1-0.7-1.5
				L108,52.5z M141.7,78.4V114L134,85.5C137.2,83.8,139.8,81.4,141.7,78.4z M202.3,226h-80l0,0c-3.1,0-6.1-1.1-8.4-3.2l-10.2-8.9
				v-58.3l18.4-18.4l3.3,13.1c0.5,1.9,2.2,3.2,4.1,3.2h82.9c3.3,0,5.9,2.6,5.9,5.9s-2.6,5.9-5.9,5.9H170c-2.3,0-4.2,1.9-4.2,4.2
				s1.9,4.2,4.2,4.2h55.7c3.3,0,5.9,2.6,5.9,5.9s-2.6,5.9-5.9,5.9H170c-2.3,0-4.2,1.9-4.2,4.2s1.9,4.2,4.2,4.2h46.7
				c3.3,0,5.9,2.6,5.9,5.9s-2.6,5.9-5.9,5.9H170c-2.3,0-4.2,1.9-4.2,4.2s1.9,4.2,4.2,4.2h32.3c3.3,0,5.9,2.6,5.9,5.9
				C208.2,223.3,205.6,226,202.3,226z M245.5,226L245.5,226h-30.1c0.8-1.8,1.3-3.8,1.3-5.9c0-2.1-0.5-4.1-1.3-5.9h1.3
				c7.9,0,14.3-6.4,14.3-14.3c0-2.3-0.6-4.5-1.5-6.4c6.1-1.7,10.5-7.2,10.5-13.8c0-3.2-1.1-6.2-2.8-8.5v-53.5c0-2.3-1.9-4.2-4.2-4.2
				s-4.2,1.9-4.2,4.2v48c-1-0.2-2-0.3-3.1-0.3h-0.1c0.8-1.8,1.3-3.8,1.3-5.9c0-7.9-6.4-14.3-14.3-14.3h-6.8
				c7.2-3.1,12.3-10.2,12.3-18.6c0-11.1-9.1-20.2-20.2-20.2c-11.1,0-20.2,9.1-20.2,20.2c0,8.3,5.1,15.5,12.3,18.6h-23.1V64.7
				c7.5-1.6,13.5-7.6,15.1-15.1h31.7c1.6,7.5,7.6,13.5,15.1,15.1v13.1c0,2.3,1.9,4.2,4.2,4.2s4.2-1.9,4.2-4.2V61
				c0-2.3-1.9-4.2-4.2-4.2c-6.3,0-11.4-5.1-11.4-11.4c0-2.3-1.9-4.2-4.2-4.2h-39.3c-2.3,0-4.2,1.9-4.2,4.2c0,6.3-5.1,11.4-11.4,11.4
				c-2.3,0-4.2,1.9-4.2,4.2v84h-8.2V26.8h95.3L245.5,226L245.5,226z M197.8,138.1c-6.5,0-11.8-5.3-11.8-11.8s5.3-11.8,11.8-11.8
				s11.8,5.3,11.8,11.8S204.3,138.1,197.8,138.1z"/>
		</g>
	</g>
</g>
</svg>
