<?xml version="1.0" encoding="utf-8"?>
<!-- Generator: Adobe Illustrator 23.0.1, SVG Export Plug-In . SVG Version: 6.00 Build 0)  -->
<svg version="1.1" id="Layer_1" xmlns="http://www.w3.org/2000/svg" xmlns:xlink="http://www.w3.org/1999/xlink" x="0px" y="0px"
	 viewBox="0 0 291.8 252.8" style="enable-background:new 0 0 291.8 252.8;" xml:space="preserve">
<style type="text/css">
	.st0{fill:#1E77E9;}
</style>
<g>
	<g>
		<g>
			<path class="st0" d="M223.2,165.5l-0.3-0.3c-1.7-1.7-4.4-1.7-5.9,0c-1.7,1.7-1.7,4.4,0,5.9l0.3,0.3c0.8,0.8,1.9,1.3,3.1,1.3
				c1,0,2.1-0.4,3-1.2C224.9,169.9,224.9,167.2,223.2,165.5z"/>
		</g>
	</g>
	<g>
		<g>
			<path class="st0" d="M249.7,225.9h-11.9v-24.6c0-8-1.9-16-5.6-23.2c-1-2-3.6-2.9-5.7-1.9c-2,1-2.9,3.6-1.9,5.7
				c3.1,5.9,4.6,12.6,4.6,19.4v24.6h-167v-24.6c0-20,14.2-37.6,33.6-41.9l14.5-3.2c2.8-0.6,5.3-1.7,7.6-3.1
				c7.7,6.7,17.5,10.4,27.8,10.4s20-3.6,27.7-10.3c2.3,1.4,4.8,2.4,7.5,3.1l14.6,3.2c3.6,0.7,7,2,10.4,3.7c0.6,0.3,1.3,0.5,1.9,0.5
				c1.6,0,3.1-0.8,3.8-2.3c1-2,0.3-4.6-1.9-5.7c-3.9-2-8.1-3.5-12.4-4.4l-14.6-3.2c-7.4-1.6-12.7-8.2-12.7-15.8v-1.7
				c9.5-5.4,16.3-14.8,18.3-25.9h1.9c6.7,0,12-5.4,12-12v-8c0-6.7-5.4-12-12-12H189V55.3c0-20.4-16.6-37-37-37h-12
				c-20.4,0-37,16.6-37,37v17.2h-1.5c-6.7,0-12,5.4-12,12v8c0,6.7,5.4,12,12,12h1.9c1.9,11,8.6,20.5,18,25.9v1.8
				c0,7.5-5.4,14.2-12.7,15.8l-14.5,3.2c-11.4,2.5-21.7,8.9-29,18C58,178.3,54,189.7,54,201.4V226H42.2c-2.3,0-4.3,1.9-4.3,4.3
				s1.9,4.3,4.3,4.3h16h175.4h16c2.3,0,4.3-1.9,4.3-4.3S252,225.9,249.7,225.9z M188.9,81.1h1.5l0,0c1.9,0,3.6,1.6,3.6,3.6v8
				c0,1.9-1.6,3.6-3.6,3.6h-1.5V81.1z M103,96.2h-1.5c-1.9,0-3.6-1.6-3.6-3.6v-8c0-1.9,1.6-3.6,3.6-3.6h1.5V96.2z M145.9,155.1
				c-7.9,0-15.4-2.7-21.4-7.6c3.1-3.8,4.9-8.5,5.3-13.5c3.2,0.9,6.6,1.4,10.1,1.4h12c3.4,0,6.8-0.5,9.9-1.3c0.4,5,2.3,9.7,5.4,13.5
				C161.2,152.5,153.8,155.1,145.9,155.1z M111.4,55.3c0-15.8,12.8-28.5,28.5-28.5h12c14.3,0,26.1,10.6,28.2,24.2
				c-0.4,0.2-0.6,0.4-0.9,0.6c-13.4,13.4-31.4,20.8-50.4,20.8h-17.5L111.4,55.3L111.4,55.3z M111.4,98.5V81.1h17.5
				c10.6,0,20.8-2,30.5-6.1c7.8-3.2,14.8-7.5,21.1-13v14.8v21.7c0,15.8-12.8,28.5-28.5,28.5h-12C124.2,127,111.4,114.3,111.4,98.5z"
				/>
		</g>
	</g>
	<g>
		<g>
			<path class="st0" d="M90.7,175.1c-1.5-1.9-4.1-2.1-5.9-0.6c-8.2,6.6-13,16.3-13,26.9c0,2.3,1.9,4.3,4.3,4.3s4.3-1.9,4.3-4.3
				c0-8,3.6-15.4,9.8-20.3C91.8,179.6,92.2,177,90.7,175.1z"/>
		</g>
	</g>
	<g>
		<g>
			<path class="st0" d="M103.8,171.1c-0.5-2.3-2.8-3.7-5-3.2h-0.2c-2.3,0.5-3.7,2.8-3.2,5c0.5,1.9,2.2,3.3,4.1,3.3
				c0.3,0,0.6,0,0.9-0.1h0.2C102.8,175.6,104.2,173.4,103.8,171.1z"/>
		</g>
	</g>
</g>
</svg>
