<?xml version="1.0" encoding="utf-8"?>
<!-- Generator: Adobe Illustrator 23.0.1, SVG Export Plug-In . SVG Version: 6.00 Build 0)  -->
<svg version="1.1" id="Layer_1" xmlns="http://www.w3.org/2000/svg" xmlns:xlink="http://www.w3.org/1999/xlink" x="0px" y="0px"
	 viewBox="0 0 291.8 252.8" style="enable-background:new 0 0 291.8 252.8;" xml:space="preserve">
<style type="text/css">
	.st0{fill:#1E77E9;}
</style>
<g>
	<path class="st0" d="M224.5,109.5c-2.3,0-4.2,1.9-4.2,4.2s1.9,4.2,4.2,4.2s4.2-1.9,4.2-4.2S226.8,109.5,224.5,109.5z"/>
	<path class="st0" d="M154.4,67.3c2.3,0,4.2-1.9,4.2-4.2s-1.9-4.2-4.2-4.2s-4.2,1.9-4.2,4.2S152.1,67.3,154.4,67.3z"/>
	<path class="st0" d="M241.3,84.2H184v-38c0-7-5.7-12.6-12.6-12.6H50.5c-7,0-12.6,5.7-12.6,12.6v84.4c0,7,5.7,12.6,12.6,12.6h12.6
		v21.1c0,3.8,4.6,5.6,7.2,3l24.1-24h13.4v37.9c0,7,5.7,12.6,12.6,12.6h76.7l24.1,24.1c2.6,2.6,7.2,0.8,7.2-3v-21.1H241
		c7,0,12.6-5.7,12.6-12.6V96.9C254,89.9,248.4,84.2,241.3,84.2z M67.5,92.7h41.3c-0.5,1.3-0.7,2.8-0.7,4.2v12.6H67.5
		c-2.3,0-4.2,1.9-4.2,4.2c0,2.3,1.9,4.2,4.2,4.2H108v16.9H92.7c-1.1,0-2.2,0.5-3,1.3l-18.1,18.1v-15.1c0-2.3-1.9-4.2-4.2-4.2H50.5
		c-2.3,0-4.2-1.9-4.2-4.2V46.2c0-2.3,1.9-4.2,4.2-4.2h120.7c2.3,0,4.2,1.9,4.2,4.2v38c-5.9,0-102.1,0-108,0c-2.3,0-4.2,1.9-4.2,4.2
		S65.1,92.7,67.5,92.7z M245.6,181.3c0,2.3-1.9,4.2-4.2,4.2h-16.9c-2.3,0-4.2,1.9-4.2,4.2v15.1l-18.1-18.1c-0.8-0.8-1.9-1.3-3-1.3
		h-78.5c-2.3,0-4.2-1.9-4.2-4.2V96.9c0-2.3,1.9-4.2,4.2-4.2h120.7c2.3,0,4.2,1.9,4.2,4.2V181.3z"/>
	<path class="st0" d="M67.5,67.3h70.1c2.3,0,4.2-1.9,4.2-4.2s-1.9-4.2-4.2-4.2H67.5c-2.3,0-4.2,1.9-4.2,4.2S65.1,67.3,67.5,67.3z"/>
	<path class="st0" d="M137.5,118h70.1c2.3,0,4.2-1.9,4.2-4.2s-1.9-4.2-4.2-4.2h-70.1c-2.3,0-4.2,1.9-4.2,4.2S135.2,118,137.5,118z"
		/>
	<path class="st0" d="M224.5,134.9h-86.9c-2.3,0-4.2,1.9-4.2,4.2s1.9,4.2,4.2,4.2h86.9c2.3,0,4.2-1.9,4.2-4.2
		C228.7,136.8,226.8,134.9,224.5,134.9z"/>
	<path class="st0" d="M224.5,160.2h-86.9c-2.3,0-4.2,1.9-4.2,4.2s1.9,4.2,4.2,4.2h86.9c2.3,0,4.2-1.9,4.2-4.2
		C228.7,162.1,226.8,160.2,224.5,160.2z"/>
</g>
</svg>
