<?xml version="1.0" encoding="utf-8"?>
<!-- Generator: Adobe Illustrator 23.0.1, SVG Export Plug-In . SVG Version: 6.00 Build 0)  -->
<svg version="1.1" id="Layer_1" xmlns="http://www.w3.org/2000/svg" xmlns:xlink="http://www.w3.org/1999/xlink" x="0px" y="0px"
	 viewBox="0 0 441.9 331.2" style="enable-background:new 0 0 441.9 331.2;" xml:space="preserve">
<style type="text/css">
	.st0{fill:#1E77E9;}
</style>
<g>
	<path class="st0" d="M13.8,276.8C7,256.5,3.7,225,3.7,182.3c0-9.2,0.2-17.3,0.6-24.5c0.4-8.6,1.7-17.9,3.9-27.8
		c0.9-5.1,2.1-9.5,3.5-13.2s3.3-7.7,5.8-11.8c4.3-7.5,10.3-12.8,18-15.8c4.1-1.5,8.4-2.2,12.9-2.2c5.6,0,8.4,1.6,8.4,4.8
		c0,2.3-1.4,3.4-4.2,3.4c-0.8,0-2.1-0.3-3.9-0.8l-3.9-0.6c-6.2,0-11.5,2.5-16,7.6c-3.2,3.8-6.3,10.2-9.3,19.4
		c-2.1,7.5-3.5,15.8-4.2,25c-0.6,5.1-1.1,13.3-1.7,24.7l-0.3,18.6v15.5c0,18.2,1.3,34.8,3.9,49.8c1.9,9.4,4.1,17.2,6.6,23.3
		c2.5,6.2,5.9,11.2,10.3,15.2c4.7,4.3,9.7,6.5,15.2,6.5c9.9,0,17.9-4.7,23.9-14.1c0-5.1-0.4-11.7-1.1-20c-0.6-4.1-1.3-8-2.2-11.5
		c-1.1-3.2-2.4-4.8-3.9-4.8l-5.3,0.6l-5.9,0.6c-4.3,0-6.5-1.6-6.5-4.8c0-1.5,2.6-2.9,7.9-4.2c5.2-1.3,9.7-2,13.2-2
		c3,0,5.2,1.1,6.6,3.2c1.4,2.2,2.1,5,2.1,8.6c0,4.1,0.9,12.5,2.8,25c1.9,10.5,2.8,18.8,2.8,25c0,3-1.2,4.5-3.7,4.5
		c-4.5,0-6.7-2.1-6.7-6.2l0.3-0.8v-0.6c-10.7,6.2-20.2,9.3-28.4,9.3C30.9,307.2,20.5,297,13.8,276.8z"/>
	<path class="st0" d="M142,299.9l-3.4-12.4c-5.3-17.4-9.1-32.1-11.5-44.2c-1.5-6.6-3.4-15.6-5.6-27.3c-2.6-13.5-5.1-24.5-7.3-32.9
		l-2.8,1.7l-3.7,1.7l0.6,108.3v4.2c0,3.7-1.7,5.6-5.1,5.6c-1.5,0-2.7-0.5-3.7-1.4c-0.9-0.9-1.4-2.1-1.4-3.4v-4.2l0.6-56.8l0.6-27.3
		c0.7-32.8,1.1-60.7,1.1-83.8V91.5c0-1.7,1.7-2.5,5.1-2.5c4.9,0,9.4,1.3,13.6,3.9s7.5,6.2,10,10.7c5.1,9.2,7.6,19.2,7.6,30.1
		c0,8.6-1.9,18-5.6,28.1c-1.1,2.8-2.5,6-4.2,9.7s-3.2,6.1-4.5,7.5c3.9,14.4,9.7,36.7,17.2,66.7l13.2,50.6c0.2,0.6,0.3,1.6,0.3,3.1
		c0,1.7-0.3,3.1-1,4.4c-0.7,1.2-1.6,1.8-3,1.8C145.3,305.5,143,303.6,142,299.9z M115,171.9c3.6-3.6,6.1-6.6,7.6-9
		c1.3-2.6,2.4-6.6,3.4-11.8c0.9-5.2,1.4-9.9,1.4-14.1c0-7.7-1.3-15.6-3.9-23.6c-1.3-4.7-3.3-8.5-5.9-11.4s-5.5-4.4-8.7-4.4h-0.6
		c-0.2,0.2-0.5,0.3-0.8,0.3v79.3C108.9,177.2,111.5,175.5,115,171.9z"/>
	<g>
		<path class="st0" d="M163.1,173.3V162c0-15.7,0.9-29.4,2.8-41.1c1.1-7.3,2.7-13.3,4.6-18c2-4.7,4.6-8.4,8-11.2
			c3.2-3.2,7.3-4.8,12.4-4.8c4.5,0,8.6,0.9,12.4,2.7c3.7,1.8,6.8,4.1,9.3,6.9c2.1,2.6,3.9,6.1,5.6,10.4c1.7,4.3,3,8.4,3.9,12.4
			l2.2,13.2c4.5,32.1,6.7,60.5,6.7,85.2v0.8c0,9.4-0.2,18-0.6,25.9c-0.4,9.4-1.4,19.2-3.1,29.5c-0.8,5.1-1.8,9.5-3.2,13.2
			c-1.4,3.8-3.2,7.5-5.5,11.2c-3.9,6.7-9.5,10.1-16.6,10.1C176.1,308.6,163.1,263.5,163.1,173.3z M210.9,295.5
			c2.4-3.5,4.3-8.3,5.6-14.5c3-13.1,4.9-26,5.6-38.5c0.4-10.1,0.6-20,0.6-29.5v-1.1l-0.3-28.1c-0.4-10.1-1.5-23.2-3.4-39.4
			c-1.5-11.4-4.6-23.2-9.3-35.2c-1.9-4.7-4.4-8.3-7.5-11c-3.1-2.6-6.4-3.9-10-3.9c-3.2,0-6,1.5-8.4,4.5s-4.4,7.2-5.9,12.7
			c-3.4,12.6-5.2,24.2-5.6,34.9c-0.6,9.2-0.8,18.7-0.8,28.4v13.8c0,12.6,1.2,28.5,3.7,47.8c1.5,12.2,3.4,22.8,5.6,31.8
			c2.2,9,5.2,16.6,9,22.8c3.7,6.6,8.1,9.8,12.9,9.8C205.8,300.7,208.5,299,210.9,295.5z"/>
		<path class="st0" d="M238.5,173.3V162c0-15.7,0.9-29.4,2.8-41.1c1.1-7.3,2.7-13.3,4.6-18c2-4.7,4.6-8.4,8-11.2
			c3.2-3.2,7.3-4.8,12.4-4.8c4.5,0,8.6,0.9,12.4,2.7c3.7,1.8,6.8,4.1,9.3,6.9c2.1,2.6,3.9,6.1,5.6,10.4s3,8.4,3.9,12.4l2.2,13.2
			c4.5,32.1,6.7,60.5,6.7,85.2v0.8c0,9.4-0.2,18-0.6,25.9c-0.4,9.4-1.4,19.2-3.1,29.5c-0.8,5.1-1.8,9.5-3.2,13.2
			c-1.4,3.8-3.2,7.5-5.5,11.2c-3.9,6.7-9.5,10.1-16.6,10.1C251.5,308.6,238.5,263.5,238.5,173.3z M286.3,295.5
			c2.4-3.5,4.3-8.3,5.6-14.5c3-13.1,4.9-26,5.6-38.5c0.4-10.1,0.6-20,0.6-29.5v-1.1l-0.3-28.1c-0.4-10.1-1.5-23.2-3.4-39.4
			c-1.5-11.4-4.6-23.2-9.3-35.2c-1.9-4.7-4.4-8.3-7.5-11c-3.1-2.6-6.4-3.9-10-3.9c-3.2,0-6,1.5-8.4,4.5s-4.4,7.2-5.9,12.7
			c-3.4,12.6-5.2,24.2-5.6,34.9c-0.6,9.2-0.8,18.7-0.8,28.4v13.8c0,12.6,1.2,28.5,3.7,47.8c1.5,12.2,3.4,22.8,5.6,31.8
			s5.2,16.6,9,22.8c3.7,6.6,8.1,9.8,12.9,9.8C281.1,300.7,283.8,299,286.3,295.5z"/>
	</g>
	<path class="st0" d="M327.9,294.5c0-9.4-0.1-17.7-0.3-25l-0.6-25.3v-22.8c-0.2-6.7-0.3-14.3-0.3-22.8c0-25.1-0.5-48.4-1.4-69.7
		l-0.3-10.1c-0.6-11.1-0.8-20.1-0.8-27l0.8-1.1c0.2-0.4,0.6-0.8,1.1-1.4c0.2-0.6,0.7-0.9,1.4-1.1c0.4-0.2,1-0.3,2-0.3
		c6.6,0,12.5,1.5,17.9,4.5c5.3,3,9.7,7.1,13.1,12.4c6.6,10.3,9.8,22,9.8,35.2c0,8.4-1.4,17.1-4.1,25.9c-2.7,8.8-6.8,16.8-12.2,23.9
		c-5.6,7.7-11.9,12.2-18.8,13.5l0.6,31.2l0.6,15.2c0.7,18,1.1,33.4,1.1,46.1c0,3-0.4,5.2-1.3,6.6c-0.8,1.4-2.5,2.1-4.9,2.1
		C329,304.4,327.9,301.1,327.9,294.5z M337.7,192.4c0,0,0.8-0.7,2.5-2c0.4-0.2,1-0.9,2-2.2l2-2c12.2-12.2,18.3-27.5,18.3-45.8
		c0-10.5-2.1-20.3-6.2-29.2c-2.2-4.7-5.5-8.4-9.8-11.1s-9.4-4.1-15.2-4.1c0,10.7,0.6,26.7,1.7,48.1s1.7,37.4,1.7,48.1l0.6,0.6
		C336.9,192.5,337.7,192.4,337.7,192.4z"/>
	<path class="st0" d="M426.3,301.3c-1-0.9-1.5-2.1-1.5-3.4V261c0-2.2-4.8-4.3-14.3-6.2c-9.6-1.9-17.4-2.8-23.6-2.8
		c-0.4,0-1,1.4-1.8,4.2c-0.8,2.8-1.5,4.9-1.8,6.2c-2.4,9.7-4.9,20.2-7.3,31.2l-1.4,6.2c-0.4,1.5-1.3,2.2-2.8,2.2s-2.9-0.5-4.1-1.4
		s-1.8-2.1-1.8-3.4l0.3-0.6v-0.3l3.1-14.1c2.3-8.8,4.2-17.4,5.9-25.9c1.9-9.6,3.3-15.7,4.2-18.6c1.5-6.2,4.5-21.7,9-46.4l1.7-9.3
		c4.9-28.9,8.2-47.1,10.1-54.6c0.9-4.5,2.6-11.2,5.1-20c0.9-3.7,2.3-7.5,3.9-11.2c1.7-3.2,3.1-4.8,4.2-4.8c3,0,5.2,0.9,6.5,2.8
		c0.9,1.7,2.4,11,4.4,27.8c2,16.9,3.7,33.9,5.2,51.2l3.7,46.7c0,8.1,0.6,20.3,1.7,36.6c1.1,16.5,1.7,28.8,1.7,36.8v1.1
		c0,2.1-0.3,3.9-0.8,5.6c-0.7,1.5-2.5,2.2-5.3,2.2C428.6,302.7,427.3,302.2,426.3,301.3z M424.5,245.6c0-11.6-0.7-27.5-2-47.7
		s-2.7-37.9-4.2-53.3c-0.4-6.6-1.1-13.8-2.2-21.7l-1.1-11c0,0.2-0.2-0.8-0.6-3.1l-0.6-3.4c-1.5,4.1-3,9.8-4.4,17.2
		c-1.4,7.3-2.9,15.9-4.4,25.9c-4.5,27.9-8.3,48.9-11.5,63l-2.5,9.6c-2.8,9.4-4.2,16.5-4.2,21.4v1.7c8.2,2.6,17.7,3.9,28.4,3.9h1.7
		c0.6,0.2,1.2,0.3,2,0.3C422.6,248.4,424.5,247.5,424.5,245.6z"/>
	<g>
		<path class="st0" d="M101.8,328.4c7,0,7-10.9,0-10.9C94.9,317.6,94.9,328.4,101.8,328.4L101.8,328.4z"/>
	</g>
	<g>
		<path class="st0" d="M48,328.4c7,0,7-10.9,0-10.9C41,317.6,41,328.4,48,328.4L48,328.4z"/>
	</g>
	<g>
		<path class="st0" d="M151.5,328.4c7,0,7-10.9,0-10.9C144.5,317.6,144.5,328.4,151.5,328.4L151.5,328.4z"/>
	</g>
	<g>
		<path class="st0" d="M233.7,80.8c7,0,7-10.9,0-10.9C226.7,70,226.7,80.8,233.7,80.8L233.7,80.8z"/>
	</g>
	<g>
		<path class="st0" d="M368.2,328.4c7,0,7-10.9,0-10.9C361.2,317.6,361.2,328.4,368.2,328.4L368.2,328.4z"/>
	</g>
	<g>
		<path class="st0" d="M334.3,328.4c7,0,7-10.9,0-10.9C327.3,317.6,327.3,328.4,334.3,328.4L334.3,328.4z"/>
	</g>
	<g>
		<path class="st0" d="M431.2,328.4c7,0,7-10.9,0-10.9C424.2,317.6,424.2,328.4,431.2,328.4L431.2,328.4z"/>
	</g>
	<g>
		<path class="st0" d="M161,189.8c-3.7,8.7-2.5,18.8,4.7,25.4c7.3,6.7,19.1,6.9,26.9,1c5.5-4.1,0.1-13.6-5.5-9.4
			c-8.3,6.2-21.5-0.6-16.8-11.6C173.1,189,163.8,183.4,161,189.8L161,189.8z"/>
	</g>
	<g>
		<path class="st0" d="M298.5,192.6c0.4,5.4-0.2,11.4-4.8,14.9c-4.3,3.3-9.7,2.4-13.8-0.7c-5.6-4.2-11,5.2-5.5,9.4
			c7.1,5.3,17.3,5.7,24.7,0.8c8-5.4,10.9-15.1,10.3-24.4C308.8,185.7,297.9,185.6,298.5,192.6L298.5,192.6z"/>
	</g>
	<g>
		<path class="st0" d="M185.7,143.9c7,0,7-10.9,0-10.9S178.7,143.9,185.7,143.9L185.7,143.9z"/>
	</g>
	<g>
		<path class="st0" d="M205.8,142.6c7,0,7-10.9,0-10.9C198.8,131.7,198.8,142.6,205.8,142.6L205.8,142.6z"/>
	</g>
	<g>
		<path class="st0" d="M261.1,140.1c7,0,7-10.9,0-10.9C254.1,129.2,254.1,140.1,261.1,140.1L261.1,140.1z"/>
	</g>
	<g>
		<path class="st0" d="M280,140.1c7,0,7-10.9,0-10.9C273,129.2,273,140.1,280,140.1L280,140.1z"/>
	</g>
	<g>
		<path class="st0" d="M183.5,156.1c0.2,6.8,5.2,13.1,12.4,13.3c7.3,0.2,12.4-5.8,13.1-12.6c0.5-5.2-7.6-5.2-8.1,0
			c-0.6,6.2-9,5.4-9.1-0.7C191.5,150.9,183.3,150.8,183.5,156.1L183.5,156.1z"/>
	</g>
	<g>
		<path class="st0" d="M258.5,156.1c0.2,6.8,5.2,13.1,12.4,13.3c7.3,0.2,12.4-5.8,13.1-12.6c0.5-5.2-7.6-5.2-8.1,0
			c-0.6,6.2-9,5.4-9.1-0.7C266.5,150.9,258.3,150.8,258.5,156.1L258.5,156.1z"/>
	</g>
	<g>
		<path class="st0" d="M227.9,201.1c2.9,0,5.8,0,8.7,0c7,0,7-10.9,0-10.9c-2.9,0-5.8,0-8.7,0C220.9,190.2,220.9,201.1,227.9,201.1
			L227.9,201.1z"/>
	</g>
	<g>
		<path class="st0" d="M237.4,52.5c0-15.9,0-31.8,0-47.7c0-5.2-8.1-5.2-8.1,0c0,15.9,0,31.8,0,47.7
			C229.3,57.8,237.4,57.8,237.4,52.5L237.4,52.5z"/>
	</g>
	<g>
		<path class="st0" d="M258.8,67.8c11.2-11.2,22.5-22.5,33.7-33.7c3.7-3.7-2-9.5-5.8-5.8C275.5,39.5,264.2,50.8,253,62
			C249.4,65.8,255.1,71.5,258.8,67.8L258.8,67.8z"/>
	</g>
	<g>
		<path class="st0" d="M212.1,62.1c-11.2-11.2-22.5-22.5-33.7-33.7c-3.7-3.7-9.5,2-5.8,5.8c11.2,11.2,22.5,22.5,33.7,33.7
			C210,71.5,215.8,65.8,212.1,62.1L212.1,62.1z"/>
	</g>
	<g>
		<path class="st0" d="M175.7,327.1c39.4,0,78.8,0,118.2,0c5.2,0,5.2-8.1,0-8.1c-39.4,0-78.8,0-118.2,0
			C170.5,318.9,170.5,327.1,175.7,327.1L175.7,327.1z"/>
	</g>
</g>
</svg>
