<?xml version="1.0" encoding="utf-8"?>
<!-- Generator: Adobe Illustrator 23.0.1, SVG Export Plug-In . SVG Version: 6.00 Build 0)  -->
<svg version="1.1" id="Layer_1" xmlns="http://www.w3.org/2000/svg" xmlns:xlink="http://www.w3.org/1999/xlink" x="0px" y="0px"
	 viewBox="0 0 291.8 252.8" style="enable-background:new 0 0 291.8 252.8;" xml:space="preserve">
<style type="text/css">
	.st0{fill:#1E77E9;}
</style>
<g>
	<g>
		<g>
			<path class="st0" d="M146,23.2c-2.6,0-4.8,2.1-4.8,4.8c0,2.4,1.9,4.5,4.3,4.7c2.8,0.3,5.2-1.9,5.2-4.7
				C150.8,25.3,148.6,23.2,146,23.2z"/>
		</g>
	</g>
	<g>
		<g>
			<path class="st0" d="M241.6,32.8c-13.2,0-23.9-10.7-23.9-23.9c0-2.6-2.1-4.8-4.8-4.8H79.1c-2.6,0-4.8,2.1-4.8,4.8
				c0,13.2-10.7,23.9-23.9,23.9c-2.6,0-4.8,2.1-4.8,4.8v78c0,60.8,39.6,115.2,98.9,133c0.4,0.1,0.9,0.2,1.4,0.2s0.9-0.1,1.4-0.2
				c58.1-17.4,98.9-71,98.9-133V37.5C246.4,34.9,244.2,32.8,241.6,32.8z M236.8,115.6c0,57.1-36.5,106.5-90.8,123.5
				c-54-16.8-90.8-66.7-90.8-123.5V42c14.7-2.1,26.2-13.7,28.3-28.3h124.9c2.1,14.7,13.7,26.2,28.3,28.3L236.8,115.6L236.8,115.6z"
				/>
		</g>
	</g>
	<g>
		<g>
			<path class="st0" d="M224.4,48.3c-10-4.4-17.8-12.3-22.2-22.2c-0.7-1.8-2.5-2.8-4.4-2.8h-32.7c-2.6,0-4.8,2.1-4.8,4.8
				s2.1,4.8,4.8,4.8h29.7c5,9.9,13,17.9,23,23v59.7c0,46.7-28.1,87.1-71.7,103.2c-43.6-16.1-71.7-56.5-71.7-103.2V55.7
				c9.9-5.1,17.9-13.1,23-23h29.7c2.6,0,4.8-2.1,4.8-4.8s-2.1-4.8-4.8-4.8H94.2c-1.9,0-3.6,1.2-4.4,2.8c-4.4,10-12.3,17.8-22.2,22.2
				c-1.8,0.7-2.8,2.5-2.8,4.4v62.9c0,51.2,31.7,95.9,79.7,112.9c0.5,0.2,1,0.3,1.6,0.3s1-0.1,1.6-0.3c47.9-17,79.7-61.6,79.7-112.9
				V52.7C227.2,50.8,226.1,49,224.4,48.3z"/>
		</g>
	</g>
	<g>
		<g>
			<path class="st0" d="M146,73.8c-23.7,0-43,19.3-43,43s19.3,43,43,43s43-19.3,43-43S169.7,73.8,146,73.8z M146,150.3
				c-18.4,0-33.4-15-33.4-33.4s15-33.4,33.4-33.4s33.4,15,33.4,33.4S164.4,150.3,146,150.3z"/>
		</g>
	</g>
	<g>
		<g>
			<path class="st0" d="M168.5,103.9c-1.9-1.9-4.9-1.9-6.7,0l-20.5,20.5l-6.2-6.2c-1.9-1.9-4.9-1.9-6.7,0c-1.9,1.9-1.9,4.9,0,6.7
				l9.5,9.5c0.9,0.9,2.2,1.4,3.4,1.4c1.3,0,2.4-0.4,3.4-1.4l23.9-23.9C170.3,108.8,170.3,105.8,168.5,103.9z"/>
		</g>
	</g>
</g>
</svg>
